<?xml version="1.0" encoding="UTF-8"?>
<svg id="Capa_3" data-name="Capa 3" xmlns="http://www.w3.org/2000/svg" viewBox="0 0 681.07 302.43">
  <g id="Capa_1" data-name="Capa 1">
    <g>
      <path d="M189.64,151.24c10.84-7.27,35.56-28.78,35.56-74,0-1.57-.03-3.14-.1-4.68-1.28-32.58-23.84-59.98-54.32-69.18-4.03-1.21-8.19-2.13-12.47-2.69-2.39-.33-4.85-.52-7.3-.59l-.26-.03c-.16,0-.33-.03-.49,0-.69-.07-1.41-.07-2.06-.07H29.57C13.26,0,0,13.26,0,29.57v250.08c0,12.57,10.22,22.79,22.79,22.79h125.33c.95,0,1.9,0,2.72-.07,2.65-.1,5.27-.33,7.86-.65,4.12-.59,8.12-1.47,12.02-2.65,31.27-9.49,53.96-38.14,54.45-72.23l.03-1.67c0-45.18-24.72-66.69-35.56-73.93ZM150.58,6.65c.07,0,.13-.03.2-.03,36.64,1.28,66.37,30.32,67.81,66.2.03,1.47.07,2.95.07,4.42,0,49.28-31.17,68-36.21,70.72h-57.59c11.75-10.22,32.31-33.4,32.31-70.72,0-31.4-15.03-52.98-26.03-64.6,1.6-.66,3.14-1.28,4.58-1.8.66-.23,1.28-.46,1.87-.69.72-.23,1.41-.46,2.1-.69,1.02-.33,1.96-.62,2.88-.88.16-.03.3-.1.46-.13.52-.16,1.05-.33,1.51-.43,1.47-.39,2.72-.69,3.73-.92.69-.13,1.24-.26,1.7-.36.26-.07.46-.1.62-.1ZM113.45,154.02s.29.16.72.49c5.17,3.53,36.44,26.98,36.44,70.66,0,29.53-13.88,49.73-25.54,61.49-.1.1-.16.16-.26.26-61.78-30.15-71.11-97.8-71.11-135.68S63.03,45.68,124.81,15.52c10.31,10.31,25.8,30.97,25.8,61.72,0,43.81-31.4,67.25-36.47,70.72-.43.33-.66.49-.69.49l-4.45,2.78,4.45,2.78ZM114.2,295.89H22.79c-8.97,0-16.24-7.27-16.24-16.24V29.57c0-12.67,10.35-23.02,23.02-23.02h99.17c-1.51.62-3.08,1.31-4.68,2.06l-4.35,2.03.1.1C56.74,42.89,47.15,112.17,47.15,151.2v.03c0,19.94,2.49,47.8,13.36,74.55,10.38,25.57,28.42,50.13,59.17,65.88,1.44.75,2.91,1.47,4.39,2.16.66.33,1.34.62,2,.92.92.39,1.8.79,2.69,1.15h-14.54ZM218.62,226.8c-.52,37.33-30.29,67.58-67.91,69.02-2.06-.36-9.56-1.83-19.58-6.02,12.21-12.83,26.03-34.08,26.03-64.63,0-37.29-20.56-60.47-32.31-70.66h57.59c5.04,2.68,36.21,21.45,36.21,70.66l-.03,1.64Z"/>
      <path d="M584.33,0h0s-68.82,0-68.82,0c-1,0-24.77.22-48.75,19.2-39.64,31.38-47.96,89.12-47.96,132.03,0,145.98,91.31,151.03,96.73,151.18h0s68.81.01,68.81.01c1,0,24.77-.22,48.75-19.2,39.64-31.38,47.96-89.1,47.96-132C681.07,5.17,589.75.08,584.33,0ZM425.36,151.23c0-142.7,86.48-144.67,90.15-144.68h45.19c-.41.18-.83.38-1.25.56-.41.18-.82.36-1.23.56-.67.31-1.35.64-2.04.98-.4.2-.79.38-1.19.59-.77.39-1.56.81-2.35,1.24-.32.18-.64.34-.97.52-1.12.62-2.26,1.28-3.41,1.97-.02,0-.03.02-.05.03l-4.6,2.78.13.08c-26.61,17.95-56.13,55.79-56.13,135.37s29.41,117.26,55.97,135.28c-.35.19-.7.37-1.05.55-.42.21-.83.43-1.25.63-.62.31-1.23.59-1.83.88-.37.17-.75.35-1.12.52-.67.3-1.32.59-1.97.86-.29.12-.58.25-.86.37-.87.36-1.73.7-2.56,1.02-.04.02-.09.04-.14.05-9.67,3.65-16.6,4.4-17.41,4.48-4.9-.05-90.05-3.06-90.05-144.65ZM549.95,282.82c-25.85-16.32-55.78-52.33-55.78-131.6s29.92-115.31,55.78-131.6c25.84,16.31,55.75,52.31,55.75,131.6s-29.91,115.26-55.75,131.6ZM584.36,295.87h-45.13c.38-.16.78-.35,1.17-.53.44-.2.87-.39,1.32-.59.64-.29,1.28-.61,1.93-.93.43-.21.85-.41,1.29-.63.73-.37,1.47-.76,2.21-1.16.37-.2.73-.39,1.11-.59,1.09-.6,2.19-1.23,3.29-1.9.03-.02.06-.04.1-.06l4.64-2.81-.14-.09c26.6-17.99,56.11-55.87,56.11-135.37s-29.39-117.27-55.95-135.28c.34-.18.69-.37,1.03-.54.43-.22.87-.45,1.29-.66.6-.3,1.19-.58,1.77-.85.39-.18.79-.37,1.17-.55.65-.29,1.29-.57,1.92-.84.3-.13.61-.26.9-.39.86-.36,1.71-.69,2.53-1.01.05-.02.11-.04.17-.07,9.66-3.65,16.57-4.41,17.38-4.49,4.93.05,90.05,3.09,90.05,144.68s-86.48,144.63-90.16,144.65Z"/>
      <path d="M358.26,0h-57.04l-1.7,2.1-47.54,58.77c-2,2.49-2.39,5.83-1.02,8.71,1.37,2.85,4.22,4.65,7.4,4.65h41.16v228.21h68.17V9.4c0-5.17-4.22-9.4-9.43-9.4ZM258.36,67.68c-.95,0-1.34-.65-1.47-.95-.13-.26-.39-1.01.2-1.73l42.43-52.48v55.17h-41.16ZM361.14,295.89h-55.07V6.55h52.19c1.6,0,2.88,1.28,2.88,2.85v286.49Z"/>
    </g>
  </g>
</svg>